<mxfile host="Electron" modified="2024-06-26T12:46:27.324Z" agent="Mozilla/5.0 (Windows NT 10.0; Win64; x64) AppleWebKit/537.36 (KHTML, like Gecko) draw.io/24.2.5 Chrome/120.0.6099.109 Electron/28.1.0 Safari/537.36" etag="-7vQeEXQbwjPda4jShMd" version="24.2.5" type="device">
  <diagram name="Page-1" id="3phf7SipF8KTrHO5NqW1">
    <mxGraphModel dx="1036" dy="614" grid="1" gridSize="10" guides="1" tooltips="1" connect="1" arrows="1" fold="1" page="1" pageScale="1" pageWidth="850" pageHeight="1100" math="0" shadow="0">
      <root>
        <mxCell id="0" />
        <mxCell id="1" parent="0" />
        <mxCell id="FsWtdMYFUpcPrq6jOfGe-1" value="" style="whiteSpace=wrap;html=1;fillColor=none;" vertex="1" parent="1">
          <mxGeometry x="160" y="200" width="520" height="160" as="geometry" />
        </mxCell>
        <mxCell id="FsWtdMYFUpcPrq6jOfGe-3" value="" style="whiteSpace=wrap;html=1;aspect=fixed;" vertex="1" parent="1">
          <mxGeometry x="200" y="240" width="80" height="80" as="geometry" />
        </mxCell>
        <mxCell id="FsWtdMYFUpcPrq6jOfGe-4" value="" style="whiteSpace=wrap;html=1;aspect=fixed;" vertex="1" parent="1">
          <mxGeometry x="320" y="240" width="80" height="80" as="geometry" />
        </mxCell>
        <mxCell id="FsWtdMYFUpcPrq6jOfGe-5" value="" style="whiteSpace=wrap;html=1;aspect=fixed;" vertex="1" parent="1">
          <mxGeometry x="440" y="240" width="80" height="80" as="geometry" />
        </mxCell>
        <mxCell id="FsWtdMYFUpcPrq6jOfGe-6" value="" style="whiteSpace=wrap;html=1;aspect=fixed;" vertex="1" parent="1">
          <mxGeometry x="560" y="240" width="80" height="80" as="geometry" />
        </mxCell>
        <mxCell id="FsWtdMYFUpcPrq6jOfGe-7" value="Div&lt;div&gt;A Parent Container Div&lt;/div&gt;" style="text;html=1;align=center;verticalAlign=middle;whiteSpace=wrap;rounded=0;" vertex="1" parent="1">
          <mxGeometry x="150" y="490" width="60" height="20" as="geometry" />
        </mxCell>
        <mxCell id="FsWtdMYFUpcPrq6jOfGe-8" value="" style="endArrow=classic;html=1;rounded=0;exitX=0;exitY=1;exitDx=0;exitDy=0;" edge="1" parent="1" source="FsWtdMYFUpcPrq6jOfGe-1">
          <mxGeometry width="50" height="50" relative="1" as="geometry">
            <mxPoint x="400" y="440" as="sourcePoint" />
            <mxPoint x="170" y="480" as="targetPoint" />
            <Array as="points">
              <mxPoint x="130" y="410" />
            </Array>
          </mxGeometry>
        </mxCell>
        <mxCell id="FsWtdMYFUpcPrq6jOfGe-9" value="" style="endArrow=classic;html=1;rounded=0;exitX=0;exitY=1;exitDx=0;exitDy=0;" edge="1" parent="1">
          <mxGeometry width="50" height="50" relative="1" as="geometry">
            <mxPoint x="235" y="323" as="sourcePoint" />
            <mxPoint x="245" y="443" as="targetPoint" />
            <Array as="points">
              <mxPoint x="195" y="383" />
            </Array>
          </mxGeometry>
        </mxCell>
        <mxCell id="FsWtdMYFUpcPrq6jOfGe-10" value="" style="endArrow=classic;html=1;rounded=0;exitX=0;exitY=1;exitDx=0;exitDy=0;" edge="1" parent="1">
          <mxGeometry width="50" height="50" relative="1" as="geometry">
            <mxPoint x="357" y="323" as="sourcePoint" />
            <mxPoint x="367" y="443" as="targetPoint" />
            <Array as="points">
              <mxPoint x="317" y="383" />
            </Array>
          </mxGeometry>
        </mxCell>
        <mxCell id="FsWtdMYFUpcPrq6jOfGe-11" value="" style="endArrow=classic;html=1;rounded=0;exitX=0;exitY=1;exitDx=0;exitDy=0;" edge="1" parent="1">
          <mxGeometry width="50" height="50" relative="1" as="geometry">
            <mxPoint x="480" y="325" as="sourcePoint" />
            <mxPoint x="490" y="445" as="targetPoint" />
            <Array as="points">
              <mxPoint x="440" y="385" />
            </Array>
          </mxGeometry>
        </mxCell>
        <mxCell id="FsWtdMYFUpcPrq6jOfGe-12" value="" style="endArrow=classic;html=1;rounded=0;exitX=0;exitY=1;exitDx=0;exitDy=0;" edge="1" parent="1">
          <mxGeometry width="50" height="50" relative="1" as="geometry">
            <mxPoint x="599" y="326" as="sourcePoint" />
            <mxPoint x="609" y="446" as="targetPoint" />
            <Array as="points">
              <mxPoint x="559" y="386" />
            </Array>
          </mxGeometry>
        </mxCell>
        <mxCell id="FsWtdMYFUpcPrq6jOfGe-13" value="Div&lt;div&gt;A Child Div&lt;/div&gt;" style="text;html=1;align=center;verticalAlign=middle;whiteSpace=wrap;rounded=0;" vertex="1" parent="1">
          <mxGeometry x="220" y="470" width="60" height="20" as="geometry" />
        </mxCell>
        <mxCell id="FsWtdMYFUpcPrq6jOfGe-14" value="Div&lt;div&gt;A Child Div&lt;/div&gt;" style="text;html=1;align=center;verticalAlign=middle;whiteSpace=wrap;rounded=0;" vertex="1" parent="1">
          <mxGeometry x="336" y="468" width="60" height="20" as="geometry" />
        </mxCell>
        <mxCell id="FsWtdMYFUpcPrq6jOfGe-15" value="Div&lt;div&gt;A Child Div&lt;/div&gt;" style="text;html=1;align=center;verticalAlign=middle;whiteSpace=wrap;rounded=0;" vertex="1" parent="1">
          <mxGeometry x="460" y="463" width="60" height="20" as="geometry" />
        </mxCell>
        <mxCell id="FsWtdMYFUpcPrq6jOfGe-16" value="Div&lt;div&gt;A Child Div&lt;/div&gt;" style="text;html=1;align=center;verticalAlign=middle;whiteSpace=wrap;rounded=0;" vertex="1" parent="1">
          <mxGeometry x="582" y="463" width="60" height="20" as="geometry" />
        </mxCell>
        <mxCell id="FsWtdMYFUpcPrq6jOfGe-19" value="" style="edgeStyle=orthogonalEdgeStyle;rounded=0;orthogonalLoop=1;jettySize=auto;html=1;" edge="1" parent="1" source="FsWtdMYFUpcPrq6jOfGe-17" target="FsWtdMYFUpcPrq6jOfGe-18">
          <mxGeometry relative="1" as="geometry" />
        </mxCell>
        <mxCell id="FsWtdMYFUpcPrq6jOfGe-17" value="&lt;h1 style=&quot;margin-top: 0px;&quot;&gt;Create a Parent div&lt;/h1&gt;&lt;div&gt;Height: 200 px;&lt;/div&gt;&lt;div&gt;Width: 100%;&lt;/div&gt;&lt;div&gt;&lt;br&gt;&lt;/div&gt;" style="text;html=1;whiteSpace=wrap;overflow=hidden;rounded=0;" vertex="1" parent="1">
          <mxGeometry x="120" y="560" width="230" height="90" as="geometry" />
        </mxCell>
        <mxCell id="FsWtdMYFUpcPrq6jOfGe-18" value="&lt;h1 style=&quot;margin-top: 0px;&quot;&gt;Create a Child div&lt;/h1&gt;&lt;div&gt;Height: 150 px;&lt;/div&gt;&lt;div&gt;Width: 20%;&lt;/div&gt;&lt;div&gt;&lt;br&gt;&lt;/div&gt;" style="text;html=1;whiteSpace=wrap;overflow=hidden;rounded=0;" vertex="1" parent="1">
          <mxGeometry x="120" y="730" width="230" height="90" as="geometry" />
        </mxCell>
      </root>
    </mxGraphModel>
  </diagram>
</mxfile>
